<svg id="Layer_1" data-name="Layer 1" xmlns="http://www.w3.org/2000/svg" viewBox="0 0 427.44 398.77"><title>SVGS</title><path d="M302.7,256.11q0-38.93,0-77.85a78.89,78.89,0,0,0-.21-8.43c-.85-7.7-6.11-12.75-13.44-13.14A14.37,14.37,0,0,0,273.82,169a45.51,45.51,0,0,0-.24,7.49q0,79.26,0,158.52a53,53,0,0,0,.15,6.56c1,7.79,7.14,13.33,14.52,13.32s13.43-5.61,14.27-13.45a81.67,81.67,0,0,0,.19-8.43V256.11m-141.17.05q0-39.89,0-79.74a43.56,43.56,0,0,0-.44-8.41,14.47,14.47,0,0,0-28.43,1,52.18,52.18,0,0,0-.24,7.51q0,79.26,0,158.53a47.89,47.89,0,0,0,.27,7.49,14.38,14.38,0,0,0,28.35.87,47.61,47.61,0,0,0,.49-9.34q0-38.92,0-77.86m70.82-.07c0-26.26.05-52.54,0-78.8A39.88,39.88,0,0,0,231,166.21c-1.94-6.45-7.69-9.91-14.47-9.49a13.5,13.5,0,0,0-12.77,10.53,39,39,0,0,0-.91,9.29q-.08,79.25,0,158.53a38.29,38.29,0,0,0,1,9.26A14.15,14.15,0,0,0,231,345a40.48,40.48,0,0,0,1.27-11.1c.1-25.95,0-51.91,0-77.85M77.28,115.19H357.49c.25,2.68.74,5.35.74,8q0,114.54,0,229.08c0,21.1-11,36.53-29.34,42.11A35.28,35.28,0,0,1,318.73,396c-67.29.1-134.57.31-201.84,0-19.56-.1-35.18-13.94-39.16-32.93a50.36,50.36,0,0,1-.85-10.26q-.07-115.49,0-231c0-1.87.24-3.72.43-6.65"/><path d="M372.66,85.23H62.72c-.09-12.37-2-24.79,1.79-36.93C68,37.17,78.6,30.25,91.36,30.17c19.7-.12,39.41,0,59.11,0h10c1.05-3.67,1.72-6.38,2.61-9C166.9,9.7,176.18,2.23,188.24,2c19.38-.37,38.78-.34,58.16,0,12.52.2,21.87,7.64,25.83,19.56.77,2.36,1.26,4.81,2.25,8.59h9.62c19.4,0,38.78-.06,58.18,0,18.47.06,29.8,11.07,30.34,29.56.24,8.36,0,16.72,0,25.51"/></svg>