<svg id="Layer_1" data-name="Layer 1" xmlns="http://www.w3.org/2000/svg" xmlns:xlink="http://www.w3.org/1999/xlink" viewBox="0 0 711.91 168.49" style="border-radius: 8px !important"><defs><style>.cls-1{fill:none;}.cls-2{fill:rgb(102,116,143);}.cls-3{fill:white;}.cls-4{clip-path:url(#clip-path);}</style><clipPath id="clip-path"><rect class="cls-1" x="-0.36" y="0.23" width="710.88" height="167.53"/></clipPath></defs><title>SVGS</title><rect class="cls-2" x="-0.36" y="0.23" width="710.88" height="167.53"/><path class="cls-3" d="M226.3,71.23,240,98.7l13.59-27.47h8.21v41.35h-6.44l-.06-30.9-13.06,26.59h-4.55l-13-26.59v30.9H218V71.23Z"/><path class="cls-3" d="M289.63,98.82v13.76h-6.91V99.06L267.3,71.23h7l11.82,20.14,11.57-20.14h7.09Z"/><path class="cls-3" d="M341.09,77.49c-4.08,0-6.74,1.54-6.74,4.31,0,9,22.33,4.2,22.27,19.09,0,7.38-6.49,11.93-15.59,11.93a25.43,25.43,0,0,1-16.9-6.56l3-6c4.26,3.9,9.57,6,14,6,4.84,0,7.73-1.83,7.73-5,0-9.22-22.33-4.07-22.33-18.79,0-7.09,6.09-11.52,15.07-11.52a26.94,26.94,0,0,1,14.47,4.26l-2.89,6.14A24.7,24.7,0,0,0,341.09,77.49Z"/><path class="cls-3" d="M371.75,71.23v18h21.92v-18h7v41.35h-7V95.45H371.75v17.13h-7V71.23Z"/><path class="cls-3" d="M418.48,71.23v41.35h-7V71.23Z"/><path class="cls-3" d="M457.11,71.23l-.05,6.26H436.32V89.42h18.79v6.21H436.32v17h-7V71.23Z"/><path class="cls-3" d="M491.56,71.23v6.26H478.44v35.09h-7V77.49H458.41V71.23Z"/><path class="cls-3" d="M510.58,77.49c-4.08,0-6.74,1.54-6.74,4.31,0,9,22.34,4.2,22.28,19.09,0,7.38-6.5,11.93-15.6,11.93a25.45,25.45,0,0,1-16.9-6.56l3-6c4.25,3.9,9.57,6,14,6,4.84,0,7.74-1.83,7.74-5C518.38,92,496,97.17,496,82.45c0-7.09,6.09-11.52,15.07-11.52a27,27,0,0,1,14.48,4.26l-2.9,6.14A24.7,24.7,0,0,0,510.58,77.49Z"/><g class="cls-4"><path class="cls-3" d="M142.75,82.29h20c.53,1.4.63,18.46.11,20.53h-20c-.43-1.48-.51-18.24-.08-20.53"/></g><rect class="cls-3" x="142.61" y="109.19" width="20.45" height="20.33"/><g class="cls-4"><path class="cls-3" d="M163.09,55.69v20c-1.47.4-17.54.53-20.46.16v-20c1.42-.48,17.86-.61,20.46-.14"/><path class="cls-3" d="M89,102.83V82.56c1.42-.45,18.3-.53,20.33-.07v20.34Z"/><path class="cls-3" d="M115.93,82.35H136.2V102.6c-1.43.4-17,.54-20.1.18-.48-1.35-.64-17.51-.17-20.43"/><path class="cls-3" d="M89,75.8v-20c1.6-.41,18-.49,20.14-.12.41,1.41.55,17.05.19,20.07-1.41.41-18,.49-20.33.08"/><path class="cls-3" d="M136.15,76h-20c-.52-1.4-.64-17.94-.16-20.21,1.51-.39,18-.47,20.19-.07Z"/><path class="cls-3" d="M109.23,129.55h-20c-.43-1.46-.52-18.05-.1-20.38h20c.39,1.59.47,18,.08,20.38"/><path class="cls-3" d="M116,109.15h20.16v20.14c-1.45.43-17.36.57-20.08.18-.49-1.42-.59-18.09-.08-20.32"/></g></svg>