<svg id="Layer_1" data-name="Layer 1" xmlns="http://www.w3.org/2000/svg" viewBox="0 0 427.44 398.77"><defs><style>.cls-1{fill:#1d1d1b;}</style></defs><title>SVGS</title><path class="cls-1" d="M79,127.54V339.32c6.8,2,197,2.78,213,.71.42-22.48-.1-45.23.3-68.61H347v124c-6.83,1.74-309.16,2.41-322.85.73-1.82-6.74-2.35-311.65-.55-322.8,6.4-2.16,114.05-2.69,125.19-.48v54.39L79,127.54"/><path class="cls-1" d="M189.67,169.37c-4.22,16.77-8.11,31.52-11.49,46.38-.41,1.82,1.37,4.66,2.9,6.32,5.09,5.52,10.74,10.53,15.75,16.11,3.23,3.57,6.65,3.91,10.91,2.74,5.72-1.57,11.54-2.76,17.28-4.23,7.73-2,15.42-4.1,25.19-6.7-20.32-20.58-39.48-39.64-60.54-60.62M159.05,276.19c-11.51,0-17.47-7.62-14.79-17.85,6.43-24.57,14.05-48.86,19.59-73.62,4.09-18.23,12.94-32.22,26.28-45.19,43.46-42.21,85.93-85.46,128.78-128.31,1.78-1.77,3.49-3.63,5.35-5.3,7.29-6.53,14.53-6.59,21.66.26C356.1,16,366,26,376.05,36q17.34,17.3,34.63,34.64c10.88,10.91,11,16.38,0,27.57-22.06,22.34-44.29,44.51-66.45,66.76-25.28,25.35-50.62,50.62-75.75,76.1a41.68,41.68,0,0,1-20,11.54c-27.61,7.07-55.12,14.62-82.67,22-2.72.71-5.46,1.32-6.73,1.62"/></svg>