<svg id="Layer_1" data-name="Layer 1" xmlns="http://www.w3.org/2000/svg" xmlns:xlink="http://www.w3.org/1999/xlink" viewBox="0 0 711.91 168.49" style="border-radius: 5px !important"><defs><style>.cls-1{fill:none;}.cls-2{fill:rgb(102,116,143);}.cls-3{fill:white;}.cls-4{clip-path:url(#clip-path);}</style><clipPath id="clip-path"><rect class="cls-1" x="-0.1" y="1.29" width="710.88" height="167.53"/></clipPath></defs><title>SVGS</title><rect class="cls-2" x="-0.1" y="1.29" width="710.88" height="167.53"/><path class="cls-3"  d="M236.71,78.31a14.57,14.57,0,1,0,0,29.13,17.14,17.14,0,0,0,11.53-4.9l4.13,4.61a23.49,23.49,0,0,1-16,6.79c-12.11,0-21.51-9.16-21.51-21s9.52-20.8,21.75-20.8a22.81,22.81,0,0,1,15.71,6.38l-4.07,5.08A16.18,16.18,0,0,0,236.71,78.31Z"/><path class="cls-3" d="M266.43,72.29v18h21.92v-18h7v41.35h-7V96.51H266.43v17.13h-7V72.29Z"/><path class="cls-3" d="M335.73,72.29v6.26H313.16V89.78h20.21V96H313.16v11.4h23.28v6.26H306.19V72.29Z"/><path class="cls-3" d="M363.38,78.31a14.57,14.57,0,1,0,0,29.13,17.11,17.11,0,0,0,11.52-4.9l4.13,4.61a23.49,23.49,0,0,1-16,6.79c-12.11,0-21.5-9.16-21.5-21s9.51-20.8,21.74-20.8A22.79,22.79,0,0,1,379,78.49l-4.07,5.08A16.17,16.17,0,0,0,363.38,78.31Z"/><path class="cls-3" d="M413.71,113.64,400.12,95.39l-7,7.74v10.51h-7V72.29h7V93.67l19.73-21.38H421L405,90l17.07,23.69Z"/><path class="cls-3" d="M453.23,72.29v41.35h-7V72.29Z"/><path class="cls-3" d="M471,72.29,493.11,102V72.29H500v41.35h-6.85L471.07,84v29.65h-7V72.29Z"/><g class="cls-4"><path class="cls-3" d="M153.05,68.14H99.52c-.44,1.85-.43,51.8,0,53.65h26.63c4.49,0,9,0,13.47,0s8.9.16,13.4-.13ZM87.66,133.31V56.46h76.86c.41,1.38.57,73.8.17,76.74-1.38.41-74.43.54-77,.11"/><path class="cls-3" d="M124.28,115.57l-18.76-14.9c2.49-3.1,4.9-6.11,7.48-9.31,2.86,2,5.39,4.3,8.32,6.44,2.82-3.83,5.2-7.84,7.76-11.71s5-7.72,7.72-11.83l10.12,6.49-22.64,34.82"/></g></svg>