<svg id="Layer_1" data-name="Layer 1" xmlns="http://www.w3.org/2000/svg" viewBox="0 0 711.91 168.49"><defs><style>.cls-1{fill:rgb(102,116,143);}.cls-2{fill:white;}</style></defs><title>SVGS</title><rect class="cls-1" x="-0.36" y="1.22" width="710.88" height="167.53"/><path class="cls-2" d="M226.3,63.66,240,91.13l13.59-27.47h8.21V105h-6.44l-.06-30.9-13.06,26.59h-4.55l-13-26.59V105H218V63.66Z"/><path class="cls-2" d="M289.63,91.25V105h-6.91V91.49L267.3,63.66h7l11.81,20.15,11.58-20.15h7.09Z"/><path class="cls-2" d="M354.26,105,346.7,92.49c-.59.06-1.24.06-1.89.06H335V105h-7V63.66h16.78c10.57,0,16.66,5.14,16.66,14.12,0,6.62-3.07,11.29-8.57,13.41L362.18,105Zm-9.45-18.73c6.38,0,10-2.72,10-8.33,0-5.44-3.66-8-10-8H335V86.29Z"/><path class="cls-2" d="M400.28,63.66v6.26H377.71V81.15h20.21v6.2H377.71v11.4H401V105H370.74V63.66Z"/><path class="cls-2" d="M411.74,63.66l10.05,33.62,10-33.62h6.85l10.05,33.62,10-33.62h7.21L452,105h-7.15l-9.81-32.26L425.15,105h-7.21l-13.7-41.36Z"/><path class="cls-2" d="M494.51,95.68H473.66l-4,9.34h-7.27l18.26-41.36h7.15L505.92,105h-7.45Zm-2.66-6.2-7.8-18.38-7.79,18.38Z"/><path class="cls-2" d="M537.64,105l-7.56-12.53c-.6.06-1.24.06-1.9.06h-9.8V105h-7V63.66h16.77c10.58,0,16.67,5.14,16.67,14.12,0,6.62-3.08,11.29-8.57,13.41L545.56,105Zm-9.46-18.73c6.39,0,10.05-2.72,10.05-8.33,0-5.44-3.66-8-10.05-8h-9.8V86.29Z"/><path class="cls-2" d="M592.46,84.34c0,11.93-9,20.68-21.56,20.68H554.12V63.66h17C583.48,63.66,592.46,72.35,592.46,84.34Zm-7,.06A14.1,14.1,0,0,0,571,69.92h-9.87V98.75h10.16C579.29,98.75,585.43,92.79,585.43,84.4Z"/><path class="cls-2" d="M613,69.92c-4.08,0-6.73,1.54-6.73,4.32,0,9,22.33,4.19,22.27,19.08,0,7.39-6.5,11.93-15.6,11.93A25.45,25.45,0,0,1,596,98.7l3-6c4.25,3.9,9.57,6,14,6,4.84,0,7.74-1.84,7.74-5,0-9.21-22.33-4.07-22.33-18.78,0-7.09,6.08-11.52,15.06-11.52A26.94,26.94,0,0,1,628,67.62l-2.9,6.14A24.8,24.8,0,0,0,613,69.92Z"/><polygon class="cls-2" points="120.49 38.01 134.14 65.67 164.67 70.11 142.58 91.64 147.79 122.05 120.49 107.69 93.19 122.05 98.4 91.64 76.31 70.11 106.84 65.67 120.49 38.01"/></svg>