<svg id="Layer_1" data-name="Layer 1" xmlns="http://www.w3.org/2000/svg" xmlns:xlink="http://www.w3.org/1999/xlink" viewBox="0 0 595.28 595.28"><defs><style>.cls-1{fill:none;}.cls-2{clip-path:url(#clip-path);}.cls-3{fill:rgb(205, 21, 67);}.cls-4{fill:white;}</style><clipPath id="clip-path"><rect class="cls-1" x="1.9" y="-0.05" width="594.56" height="594.56"/></clipPath></defs><title>SVGS</title><g class="cls-2"><path class="cls-3" d="M299.18,594.51c164.18,0,297.28-133.09,297.28-297.28S463.36,0,299.18,0,1.9,133.05,1.9,297.23,135,594.51,299.18,594.51"/><path class="cls-4" d="M276.07,152.25a43.57,43.57,0,1,0-43.58,43.57,43.48,43.48,0,0,0,43.58-43.57"/><path class="cls-4" d="M346.67,197.21H288a5.91,5.91,0,0,1,0-11.82h58.67a5.91,5.91,0,0,1,0,11.82"/><path class="cls-4" d="M293.24,253.91l-13.77-6.66L290,239.56a17.43,17.43,0,0,0,5-5.8h26.18Zm159-48v-1.5a5.32,5.32,0,0,0-5.31-5.37h-.84c-2.75,0-5,2.21-10.14,6.87H227.55c-26.9,1.11-37.27,18.16-37.27,38.28V352.78L157.87,457.7a21.67,21.67,0,0,0,41.4,12.79l28.45-92.1,28.45,92.1a21.67,21.67,0,0,0,41.4-12.79l-32.75-106V279.54l22.49,10.89a17.6,17.6,0,0,0,17.94-1.52c.06,0,.1,0,.16-.07L353.74,254A17.67,17.67,0,0,0,360,233.76h16.82a13.94,13.94,0,0,0,13.88-13h64.83V205.93Z"/></g></svg>