<svg id="Layer_1" data-name="Layer 1" xmlns="http://www.w3.org/2000/svg" xmlns:xlink="http://www.w3.org/1999/xlink" viewBox="0 0 595.28 595.28"><defs><style>.cls-1{fill:none;}.cls-2{clip-path:url(#clip-path);}.cls-3{fill:#1d94a0;}.cls-4{fill:#162834;}</style><clipPath id="clip-path"><rect class="cls-1" x="1" y="0.28" width="594" height="594"/></clipPath></defs><title>SVGS</title><g class="cls-2"><path class="cls-3" d="M298,594.28c164,0,297-133,297-297S462,.28,298,.28s-297,133-297,297,133,297,297,297"/><path class="cls-4" d="M280,308.39l.45-.18s0,.22-.45.18M403.15,183c-9.73-7.72-35.23-10.58-45.37-3.26s-18.23,13-18.23,13c17,8.93,11.75,26,11.75,26,.41-6.09.81-10.16-8.91-19.1s-21.87-26.43-26.32-34.14a20.53,20.53,0,0,0-12.56-9.36s-6.47,12.6-6.06,23.17,18.21,24,18.21,24c-12.56-.4-21.46-10.55-31.59-16.67s-15.8-10.15-26.33-21.53-15.38-3.26-15.38-3.26c8.91,1.64,10.13,12.19,15.78,33.34s24.31,24,24.31,24c-7.29,5.69-3.64,17.48-4.45,26.41S266.24,264.3,254.11,272s-24.72,4.05-32.83-2-12.13-10.15-16.59-6.5,3.65,17.48,3.65,23.17-8.92,4.07-8.92,4.07c-21.07-9.36-20.26-40.25-19.45-47.56s9.32-23.58,6.89-24.79-20.24,9.74-27.94,38.6,2.84,64.64,6.08,71.14c2.47,5,3.29,13.94,3.53,17.92l-.18,6.45h-.11s1.21,39.44,4,45.94,10.52,5.29,10.52,5.29c18.64,11.38,26.74,4,26.74,4,19.84,4.47,30-3.24,30-3.24l4.86-.41c19.84.41,27.94-3.26,51.44-19.12s46.57-43.89,46.57-43.89c21.58-14.68,16-34.88,15.45-36.84,11.2,25.11-13,38.89-13,38.89l-8.49,11.36c-8.51,11.38-30.39,27.65-30.39,27.65,15,24.79,47.39,47.15,47.39,47.15,50.45-27.65,82.11-80.8,86.27-142.27,3.19-47.15-26.72-96.33-36.45-104"/></g></svg>