<svg id="Layer_1" data-name="Layer 1" xmlns="http://www.w3.org/2000/svg" viewBox="0 0 595.28 595.28"><defs><style>.cls-1{fill:#1d94a0;}.cls-2{fill:#162834;}</style></defs><title>SVGS</title><path class="cls-1" d="M304.86,593.07c162.83,0,294.82-132,294.82-294.82S467.69,3.43,304.86,3.43,10,135.43,10,298.25,142,593.07,304.86,593.07"/><path class="cls-2" d="M130.29,286.7c-14.17,0-25.31,10.94-25.31,24.92a24.94,24.94,0,0,0,25.31,25c7.09,0,14.38-3.24,19.75-8.4l7.09,7.89c-7.19,7.09-17.42,11.65-27.44,11.65-20.76,0-36.87-15.7-36.87-36,0-20.15,16.31-35.65,37.27-35.65A39.11,39.11,0,0,1,157,287l-7,8.71A27.69,27.69,0,0,0,130.29,286.7Z"/><path class="cls-2" d="M214.65,331.26H178.9l-6.79,16H159.66L191,276.38H203.2l31,70.88H221.43Zm-4.56-10.63-13.37-31.5-13.37,31.5Z"/><path class="cls-2" d="M255.35,276.38l38,50.93V276.38h11.75v70.88H293.33l-37.78-50.83v50.83h-12V276.38Z"/><path class="cls-2" d="M355.4,286.7c-14.18,0-25.32,10.94-25.32,24.92a24.94,24.94,0,0,0,25.32,25c7.09,0,14.38-3.24,19.75-8.4l7.09,7.89c-7.19,7.09-17.42,11.65-27.45,11.65-20.76,0-36.86-15.7-36.86-36,0-20.15,16.31-35.65,37.27-35.65A39.11,39.11,0,0,1,382.14,287l-7,8.71A27.71,27.71,0,0,0,355.4,286.7Z"/><path class="cls-2" d="M445,276.38v10.73H406.34v19.24H441V317H406.34v19.55h39.9v10.73H394.39V276.38Z"/><path class="cls-2" d="M472.76,276.38v60.05h30.69v10.83H460.81V276.38Z"/></svg>